<svg width="908" height="249" viewBox="0 0 908 249" fill="none" xmlns="http://www.w3.org/2000/svg">
<path d="M128.058 141.256C128.108 141.256 128.158 141.253 128.21 141.247C128.998 141.164 129.569 140.456 129.486 139.668C128.596 131.281 130.165 124.391 130.259 123.999C130.484 123.333 130.191 122.585 129.545 122.259C128.834 121.897 127.973 122.187 127.617 122.894C127.3 123.522 125.703 131.238 126.631 139.971C126.71 140.709 127.333 141.256 128.058 141.256Z" fill="white"/>
<path d="M171.026 193.497C171.094 191.032 171.252 185.417 171.34 182.583C171.393 180.916 171.06 178.327 170.638 175.053C170.097 170.862 169.423 165.648 169.489 161.201C169.504 160.215 169.508 159.377 169.511 158.629C169.535 153.483 169.538 152.823 173.08 137.724C175.875 125.804 174.62 117.501 173.706 111.439C173.258 108.481 172.873 105.928 173.046 103.677C173.353 99.6876 172.639 96.3713 171.884 92.8596C171.219 89.7644 170.532 86.5628 170.532 82.6693C170.532 74.6454 163.964 66.0788 162.246 63.9842C162.226 62.3662 162.185 60.9392 162.15 59.927C165.253 59.6973 167.672 57.3141 167.78 54.3725C167.843 52.6956 167.136 51.2226 165.735 50.1114C164.203 48.8968 163.039 46.1289 162.011 43.6868C160.943 41.1457 160.018 38.9506 158.583 37.8767C156.411 36.2501 151.445 36.2386 143.84 37.838C142.068 38.2112 140.905 39.2148 140.132 40.3575C136.708 39.621 133.12 39.733 129.564 40.6834C127.75 38.6103 122.16 32.4284 118.064 30.15C115.231 28.5765 112.317 28.6196 110.456 30.2677C108.722 31.8024 108.335 34.3177 109.423 36.9967C110.985 40.8442 111.962 50.3756 112.205 52.9612C111.685 53.4551 111.118 53.9217 110.505 54.4155C108.594 55.956 106.427 57.7032 104.718 61.2665C102.685 65.5046 103.628 71.2673 104.879 75.6834C103.743 76.8606 99.5885 80.1052 88.2669 80.1052C85.7588 80.1052 83.4273 80.0808 81.258 80.0593C70.3743 79.9487 63.196 79.877 57.8223 83.1747C56.0206 84.2801 54.2145 84.3792 52.1242 84.4955C47.899 84.7295 42.6388 85.0195 35.1891 93.4023C27.3361 102.236 24.1733 109.309 22.0801 113.988C21.2187 115.913 20.5397 117.434 19.7788 118.594C18.959 119.846 16.7136 122.792 13.5868 123.096C11.4074 123.307 9.11754 122.207 6.7846 119.82C4.82205 117.813 3.57302 115.026 3.07198 111.539C2.97005 110.836 2.36994 110.312 1.65929 110.307C1.65642 110.307 1.65355 110.307 1.65067 110.307C0.94433 110.307 0.341353 110.823 0.232242 111.522C0.200658 111.73 -2.73814 131.818 13.2207 135.843C14.062 136.054 14.9679 136.159 15.8982 136.159C17.5176 136.158 19.1973 135.816 20.7636 135.235C20.6961 135.797 20.6373 136.364 20.5913 136.936C19.3926 151.765 15.8407 165.643 13.2365 169.996C10.2646 174.966 11.0054 186.585 11.139 188.353C10.5288 190.918 10.1699 193.708 10.1699 196.796C10.1699 206.468 11.7907 207.843 17.7731 207.843C18.6503 207.843 19.8735 207.929 21.2891 208.027C23.2243 208.162 25.3362 208.31 27.3605 208.31C30.7013 208.31 33.7951 207.908 35.4303 206.382C36.2329 205.634 36.6564 204.655 36.6564 203.549C36.6564 199.905 33.8353 197.482 28.5865 196.484C28.9612 185.707 34.0521 167.268 37.7862 163.618C39.9153 161.537 41.3208 158.319 42.8082 154.912C44.4491 151.15 46.1576 147.29 48.8954 144.697C49.1337 144.612 49.5113 144.482 50.0166 144.319C50.5521 146.678 51.5844 151.626 52.2419 157.275C52.0553 158.402 50.8622 164.769 47.1166 169.052C46.9199 169.277 46.7979 169.558 46.7692 169.856C46.0384 177.243 43.9122 201.628 47.2372 205.299C47.8287 205.952 48.4877 206.09 48.937 206.09C49.8142 206.09 51.224 206.237 52.8549 206.406C55.5712 206.689 58.1209 206.917 60.3362 206.917C63.2821 206.917 65.6337 206.512 66.9948 205.286C67.7729 204.586 68.1835 203.655 68.1835 202.599C68.1835 198.906 64.3273 196.641 61.1444 195.4C61.2937 192.394 62.135 182.591 62.8557 178.425C63.6454 173.855 71.0806 166.44 76.5204 161.013C81.2394 156.307 82.1065 147.65 82.2501 143.709C83.0124 143.991 83.7676 144.299 84.5155 144.642C86.6619 147.215 89.447 149.204 94.6154 150.806C100.308 152.569 103.617 153.202 105.353 153.427C105.258 155.129 105.279 156.998 105.508 159.087C106.421 167.435 110.119 189.615 111.671 192.71C112.132 193.631 112.076 194.816 112.016 196.071C111.935 197.743 111.846 199.637 113.071 201.186C113.187 201.406 113.028 202.293 112.932 202.824C112.677 204.24 112.329 206.181 113.628 207.744C114.834 209.193 117.099 209.876 120.759 209.896C121.238 209.899 121.703 209.9 122.159 209.9C128.155 209.9 131.987 209.605 133.882 207.312C135.437 205.43 135.156 202.748 134.736 200.622C134.319 198.507 133.167 196.809 131.492 195.687C131.587 193.899 131.578 189.544 130.32 181.061C129.07 172.628 129.15 161.661 130.923 153.423C137.682 152.692 143.138 151.717 146.984 150.553C148.039 151.551 150.425 154.177 151.687 158.524C152.514 161.371 152.254 164.878 151.954 168.937C151.643 173.119 151.291 177.859 152.05 183.068C152.533 186.383 152.768 189.939 152.748 193.646C152.092 194.547 150.933 196.661 150.933 200.322C150.933 204.98 154.124 207.876 159.257 207.876C159.707 207.876 160.301 207.893 160.996 207.912C162.143 207.945 163.312 207.969 164.475 207.969C169.465 207.969 174.32 207.513 176.64 205.259C177.531 204.393 178 203.295 178 202.082C177.999 196.596 174.519 194.391 171.026 193.497ZM111.931 35.4103C115.091 36.0419 118.937 40.2599 121.05 42.9949C117.206 44.6602 115.184 46.4232 114.733 48.4762C114.709 48.5882 114.674 48.6801 114.647 48.7877C114.159 44.6947 113.301 38.9219 112.083 35.9199C112.013 35.7419 111.984 35.5797 111.931 35.4103ZM103.525 88.1779C104.161 89.292 105.001 90.3358 105.706 91.1225C105.178 92.4232 104.42 94.9385 104.609 98.3352C104.422 98.1429 104.237 97.8988 104.059 97.583C102.73 95.2041 102.803 90.7736 103.525 88.1779ZM109.492 101.957C110.962 102.041 112.504 102.174 114.028 102.313C116.379 102.527 118.656 102.736 120.614 102.736C121.192 102.736 121.732 102.71 122.249 102.668C120.736 102.962 119.089 103.214 117.279 103.361C113.85 103.643 111.288 102.882 109.492 101.957ZM107.737 89.0767C106.385 87.5104 105.302 85.7488 105.37 85.275C105.373 85.2722 105.601 85.1071 106.417 85.1071C106.877 85.1071 107.526 85.1602 108.431 85.3253C110.713 85.7431 111.225 86.257 111.281 86.257C111.17 86.8385 109.569 88.0875 107.737 89.0767ZM74.4788 158.989C68.4606 164.994 60.9693 172.466 60.0246 177.934C59.927 178.498 58.5545 189.266 58.3535 194.484C57.7505 194.322 57.2954 194.219 57.1045 194.178C56.3206 194.011 55.5669 194.512 55.4047 195.288C55.2424 196.064 55.7392 196.824 56.5144 196.988C58.7957 197.469 65.3107 199.531 65.3107 202.596C65.3107 202.843 65.2461 202.992 65.071 203.151C63.4444 204.617 56.7484 203.921 53.1507 203.546C51.6102 203.387 50.2564 203.246 49.2543 203.219C47.7181 200.781 48.2091 184.689 49.5831 170.582C50.967 168.914 52.0208 167.032 52.8205 165.226C52.9195 169.627 52.5879 173.934 51.4523 177.35C51.2025 178.101 51.6088 178.915 52.3625 179.166C52.5118 179.215 52.6654 179.239 52.8147 179.239C53.4163 179.239 53.9776 178.859 54.1772 178.256C57.8324 167.264 53.9891 148.721 52.7803 143.511C58.4885 141.991 69.1784 140.017 79.3945 142.796C79.3414 145.814 78.8016 154.679 74.4788 158.989ZM95.4625 148.061C88.188 145.805 86.4724 142.944 83.3613 137.748C82.8904 136.963 82.3922 136.132 81.8438 135.25C78.012 129.09 70.6944 126.463 68.2926 125.598C68.0873 125.524 67.9279 125.469 67.8231 125.428C67.3623 125.149 66.7607 125.143 66.2827 125.463C65.6237 125.906 65.4485 126.797 65.8893 127.456C66.1807 127.891 66.5152 128.01 67.3221 128.3C69.4942 129.081 76.1026 131.454 79.406 136.766C79.9458 137.634 80.4354 138.45 80.8991 139.224C81.1532 139.648 81.3987 140.057 81.6428 140.459C81.5567 140.432 81.4719 140.402 81.3858 140.374C81.3442 140.356 81.3011 140.346 81.258 140.333C70.5538 137.045 59.4188 138.834 52.9999 140.465C57.5567 134.731 60.8559 126.925 61.0267 126.519C61.3325 125.787 60.9879 124.947 60.2558 124.639C59.5264 124.334 58.6837 124.677 58.3765 125.41C58.3277 125.527 53.4048 137.18 47.6751 141.916C47.5057 142.055 47.3564 142.216 47.1941 142.363C47.131 142.413 47.075 142.463 47.0218 142.523C43.793 145.533 41.8693 149.881 40.1752 153.762C38.8027 156.904 37.5077 159.875 35.7778 161.566C31.2339 166.009 26.2033 185.119 25.7296 196.104C24.6787 196.015 23.5603 195.967 22.3701 195.967C21.5762 195.967 20.9345 196.609 20.9345 197.403C20.9345 198.197 21.5762 198.839 22.3701 198.839C25.8028 198.839 33.7836 199.298 33.7836 203.55C33.7836 203.863 33.6932 204.074 33.4692 204.284C31.7579 205.879 25.3261 205.433 21.4872 205.163C20.0185 205.061 18.748 204.972 17.7703 204.972C13.67 204.972 13.0383 204.972 13.0383 196.796C13.0383 187.198 16.7911 180.577 20.8483 174.853C25.6793 168.035 25.3793 160.257 25.3649 159.928C25.329 159.135 24.6255 158.521 23.8646 158.56C23.0722 158.596 22.4591 159.268 22.4965 160.06C22.4993 160.13 22.7721 167.171 18.5053 173.192C16.8471 175.532 15.2392 178.019 13.8825 180.775C14.0246 177.213 14.5013 173.473 15.7 171.468C18.9288 166.068 22.3342 151 23.4526 137.161C24.8825 119.439 37.8695 105.407 38.0016 105.268C40.0718 103.06 42.1923 102.341 42.511 102.286C46.2696 102.286 48.9629 98.2261 50.3009 90.5454L50.3325 90.363C50.5048 89.6466 50.1042 88.9044 49.3921 88.6661C48.6413 88.4177 47.8273 88.8197 47.5746 89.5705C47.5617 89.6093 47.5186 89.7758 47.4712 90.0515C46.4662 95.8257 44.5654 99.4134 42.511 99.4134C41.585 99.4134 38.6376 100.393 35.907 103.301C35.7821 103.435 24.5164 115.608 21.3034 131.842C19.1011 133.111 16.148 133.615 13.9227 133.054C6.42712 131.163 3.88456 125.027 3.11936 119.854C3.60317 120.564 4.14011 121.221 4.7316 121.826C7.70342 124.866 10.78 126.249 13.8653 125.952C18.0718 125.542 20.8813 122.151 22.1821 120.166C23.0664 118.815 23.8244 117.121 24.7016 115.16C26.8422 110.37 29.7767 103.811 37.334 95.3089C43.9912 87.8205 48.2048 87.5879 52.2821 87.3611C54.5533 87.2362 56.9035 87.1055 59.324 85.6196C63.9942 82.754 70.4777 82.8229 81.2279 82.9277C83.4072 82.9493 85.7459 82.9737 88.2655 82.9737C98.4113 82.9737 103.449 80.5402 105.825 78.6925C106.114 79.5209 106.376 80.2201 106.592 80.7872C104.582 81.9314 103.024 83.1503 101.738 85.1099C99.8656 87.9626 99.4392 95.2012 101.554 98.9799C102.234 100.196 103.136 101.047 104.229 101.501C104.626 101.953 105.424 102.761 106.646 103.591C105.921 106.85 103.785 117.253 104.705 122.955C105.034 124.995 105.413 127 105.783 128.946C106.569 133.094 107.311 137.01 107.35 140.292C107.37 142.032 106.981 143.787 106.531 145.818C106.22 147.227 105.881 148.794 105.636 150.556C104.088 150.352 100.944 149.759 95.4625 148.061ZM127.69 194.288C123.436 193.721 119.098 195.791 117.396 199.218C117.043 199.927 117.333 200.79 118.044 201.141C118.753 201.496 119.615 201.206 119.968 200.494C121.121 198.174 124.263 196.737 127.31 197.135C128.486 197.292 131.291 198.002 131.917 201.173C132.353 203.378 132.273 204.746 131.668 205.479C130.445 206.956 126.188 207.052 120.775 207.02C117.27 207.002 116.175 206.313 115.836 205.905C115.421 205.405 115.536 204.56 115.757 203.328C115.988 202.039 116.251 200.577 115.326 199.41C114.762 198.698 114.818 197.542 114.881 196.206C114.953 194.71 115.032 193.013 114.235 191.421C113.048 189.053 109.365 167.988 108.359 158.774C107.779 153.46 108.604 149.733 109.334 146.446C109.802 144.332 110.244 142.338 110.22 140.265C110.179 136.731 109.413 132.693 108.603 128.418C108.238 126.497 107.862 124.517 107.539 122.505C106.771 117.738 108.477 108.79 109.279 105.02C111.021 105.75 113.196 106.296 115.847 106.296C116.383 106.296 116.938 106.273 117.511 106.227C121.059 105.937 123.995 105.294 126.474 104.656C127.481 107.383 130.325 113.569 136.284 117.124C136.785 118.716 137.166 120.429 137.058 122.246C136.544 130.89 134.571 138.234 131.199 144.068C130.013 146.118 129.08 148.715 128.371 151.64C128.356 151.683 128.336 151.719 128.325 151.766C128.318 151.793 128.326 151.819 128.32 151.847C126.211 160.72 126.153 172.556 127.476 181.48C128.5 188.386 128.668 192.428 128.652 194.486C128.338 194.41 128.023 194.334 127.69 194.288ZM134.321 110.055C134.321 110.777 134.458 111.519 134.659 112.277C131.68 109.38 130.012 105.821 129.271 103.91C131.351 103.349 133.051 102.929 134.398 103.023C134.675 103.041 134.975 103.054 135.293 103.059C134.883 104.961 134.321 107.951 134.321 110.055ZM133.685 145.502C137.283 139.277 139.384 131.509 139.925 122.414C140.119 119.151 139.075 116.281 138.238 113.975C137.677 112.432 137.191 111.1 137.191 110.055C137.191 107.921 137.898 104.53 138.27 102.891C141.271 102.547 144.852 101.623 147.71 99.7738C149.837 101.412 153.648 104.88 154.228 107.881C154.582 109.716 154.22 111.596 153.836 113.589C153.321 116.261 152.788 119.025 154.147 121.649C154.975 123.25 155.163 125.966 155.363 128.839C155.599 132.246 155.866 136.106 157.328 139.121C157.503 139.481 157.641 139.816 157.793 140.16C156.646 141.465 153.653 144.532 149.201 146.668C146.045 148.181 139.834 149.509 131.664 150.445C132.224 148.55 132.894 146.871 133.685 145.502ZM174.638 203.196C172.408 205.362 164.465 205.135 161.076 205.038C160.349 205.016 159.728 205 159.256 205C156.769 205 153.803 204.189 153.803 200.317C153.803 196.704 155.151 195.214 155.192 195.171C155.459 194.905 155.609 194.546 155.614 194.171C155.658 190.134 155.416 186.258 154.889 182.649C154.175 177.753 154.514 173.179 154.814 169.145C155.136 164.809 155.414 161.065 154.441 157.718C153.299 153.788 151.347 151.061 149.926 149.473C150.092 149.4 150.287 149.33 150.442 149.255C154.363 147.373 157.245 144.862 158.922 143.158C159.72 145.745 159.789 147.386 159.789 147.405C159.802 148.19 160.442 148.817 161.224 148.817C161.231 148.817 161.24 148.817 161.247 148.817C162.041 148.804 162.673 148.151 162.66 147.359C162.657 147.198 162.568 143.34 159.911 137.865C158.692 135.349 158.455 131.938 158.227 128.638C158.007 125.458 157.799 122.456 156.696 120.325C155.796 118.587 156.195 116.522 156.656 114.13C157.055 112.06 157.509 109.713 157.048 107.335C156.299 103.452 152.178 99.6833 149.979 97.9103C150.517 97.349 151.001 96.7374 151.403 96.0597C155.795 95.2988 163.152 92.0126 163.784 83.9959C163.846 83.2048 163.256 82.5143 162.465 82.4511C161.692 82.3879 160.983 82.9794 160.921 83.769C160.498 89.1485 156.294 91.5446 153.307 92.5797C153.996 91.6393 154.681 91.078 155.39 90.5037C156.736 89.4141 158.129 88.2885 159.019 85.008C159.227 84.2428 158.775 83.4532 158.01 83.2465C157.249 83.0383 156.456 83.4905 156.248 84.2557C155.601 86.6389 154.755 87.3237 153.584 88.2713C152.325 89.2892 150.757 90.5568 149.314 93.8732C146.955 99.2943 137.69 100.381 134.597 100.157C132.62 100.022 130.517 100.591 127.852 101.316C126.915 101.57 125.894 101.845 124.794 102.112C126.197 101.515 127.236 100.302 128.23 99.099C130.286 96.6053 131.498 95.3749 134.499 96.9829C138.056 98.8822 140.907 98.1486 142.674 97.1939C145.665 95.5788 147.903 91.9753 148.24 88.2253C148.684 83.3197 149.715 82.8631 150.055 82.7138C150.78 82.3922 151.106 81.5452 150.786 80.8202C150.464 80.0952 149.618 79.7679 148.892 80.088C146.822 81.0054 145.805 83.2881 145.382 87.9683C145.131 90.755 143.457 93.51 141.312 94.6686C139.642 95.5702 137.807 95.4955 135.855 94.4518C130.638 91.6637 127.857 95.039 126.015 97.2743C125.162 98.308 124.357 99.2842 123.554 99.5513C121.782 100.141 117.971 99.7939 114.287 99.4565C112.007 99.2469 109.675 99.043 107.565 99.0172C107.182 95.3519 108.096 92.7979 108.488 91.925C110.616 90.877 114.475 88.5885 114.132 85.9225C113.858 83.7891 111.361 82.9866 109.327 82.5803C109.983 82.2429 110.686 81.8955 111.467 81.5136C112.182 81.1633 112.947 80.7886 113.77 80.3751C118.743 77.867 118.261 72.2292 117.31 69.5991C117.04 68.8525 116.218 68.4706 115.473 68.7362C114.726 69.0061 114.341 69.8288 114.61 70.5739C114.687 70.7864 116.446 75.8083 112.478 77.8096C111.668 78.2188 110.912 78.5877 110.207 78.9337C109.845 79.1103 109.506 79.2783 109.166 79.4463C106.283 71.6808 105.644 65.9755 107.304 62.5141C108.734 59.5351 110.55 58.0707 112.304 56.6552C113.143 55.979 113.99 55.2884 114.766 54.4586C114.779 54.4442 114.791 54.4313 114.802 54.417C115.985 53.1435 116.997 51.5342 117.534 49.0921C117.661 48.5164 118.523 46.9645 123.798 44.9804C124.209 44.8253 124.527 44.4908 124.661 44.0716C124.794 43.6524 124.728 43.1973 124.481 42.8326C123.772 41.7832 118.038 33.5697 112.247 32.5691C112.288 32.5246 112.308 32.4614 112.356 32.4198C113.268 31.6144 114.957 31.712 116.666 32.661C119.864 34.4398 124.355 39.1846 126.589 41.6654C126.557 41.6783 126.527 41.687 126.496 41.6999L126.372 41.7501C125.779 41.9267 125.347 42.4751 125.347 43.1255C125.347 43.918 125.989 44.5612 126.783 44.5612C127.083 44.5612 127.28 44.4808 127.58 44.3587C131.371 42.8154 135.269 42.3675 138.949 43.0336C138.661 44.1319 138.621 44.989 138.618 45.0823C138.59 45.8719 139.208 46.5338 139.998 46.5639C140.017 46.5639 140.034 46.5639 140.054 46.5639C140.819 46.5639 141.455 45.9566 141.487 45.1857C141.488 45.1455 141.685 41.2261 144.43 40.6475C151.95 39.064 155.78 39.3669 156.861 40.1752C157.671 40.7825 158.57 42.9159 159.362 44.7995C160.524 47.5588 161.839 50.6886 163.948 52.3611C164.631 52.9023 164.935 53.5068 164.907 54.2648C164.852 55.722 163.541 56.9523 161.922 57.0658C159.051 57.2639 156.876 56.2647 155.447 54.0853C154.349 52.4113 153.44 51.2556 152.668 50.3426C152.645 50.3153 152.625 50.2894 152.602 50.265C152.322 49.9363 152.06 49.6376 151.814 49.3591C150.484 47.8459 149.607 46.8467 148.474 43.7701C148.263 43.1944 147.769 42.801 147.09 42.8312C146.862 42.8369 144.825 42.936 143.597 44.62C142.678 45.882 142.528 47.5847 143.146 49.6807C143.774 51.8069 145.053 52.7372 146.016 53.1435C147.85 53.9159 149.888 53.4292 151.117 52.9799C151.628 53.6216 152.197 54.3926 152.839 55.353C152.877 56.302 152.847 59.146 151.294 61.4273C150.847 62.0834 151.018 62.9764 151.674 63.4214C151.921 63.5894 152.203 63.6698 152.481 63.6698C152.941 63.6698 153.391 63.4501 153.67 63.041C154.744 61.4617 155.266 59.7174 155.512 58.2344C156.61 59.0096 157.878 59.5164 159.266 59.7691C159.437 64.8499 159.405 68.8425 159.178 71.7339C156.392 68.0931 153.096 65.684 152.889 65.5347C152.244 65.071 151.35 65.2189 150.885 65.862C150.422 66.5052 150.567 67.4025 151.211 67.8662C151.281 67.9165 158.161 72.9355 159.839 79.0242C160.014 79.6616 160.591 80.0794 161.221 80.0794C161.348 80.0794 161.477 80.0622 161.605 80.0263C162.369 79.8167 162.818 79.0256 162.607 78.2618C162.348 77.3244 161.99 76.4185 161.567 75.547C161.955 73.7137 162.139 71.2242 162.212 68.6975C164.572 72.1689 167.659 77.7421 167.659 82.6693C167.659 86.8686 168.38 90.2209 169.076 93.4641C169.785 96.7661 170.456 99.8843 170.181 103.458C169.983 106.033 170.391 108.738 170.866 111.868C171.795 118.025 172.954 125.686 170.285 137.068C166.667 152.483 166.664 153.301 166.64 158.616C166.637 159.355 166.632 160.185 166.618 161.158C166.551 165.811 167.238 171.139 167.788 175.42C168.179 178.442 168.516 181.055 168.47 182.494C168.387 185.181 168.24 190.37 168.167 193.006C166.885 192.884 165.75 192.879 164.987 192.879C164.193 192.879 163.552 193.521 163.552 194.315C163.552 195.109 164.193 195.751 164.987 195.751C173.924 195.751 175.127 198.951 175.127 202.079C175.127 202.523 174.975 202.867 174.638 203.196ZM149.073 50.5794C148.412 50.7087 147.703 50.7374 147.133 50.4962C146.558 50.2535 146.154 49.7209 145.903 48.8667C145.564 47.7153 145.567 46.8108 145.914 46.3213C146.011 46.1849 146.134 46.0772 146.266 45.9939C147.205 48.235 148.077 49.4151 149.073 50.5794Z" fill="white"/>
<path d="M126.876 50.7718C126.985 49.9865 126.438 49.2615 125.653 49.1524C124.865 49.0404 124.143 49.5902 124.032 50.3755C123.682 52.8664 122.568 56.7829 121.191 57.6874C119.471 58.8187 117.705 60.7525 116.607 62.069C115.978 61.545 115.256 61.1774 114.456 60.9851C111.637 60.306 108.836 61.947 108.525 62.1365C107.849 62.5514 107.637 63.4343 108.052 64.1105C108.465 64.7867 109.348 64.9992 110.026 64.5857C110.547 64.267 112.367 63.4357 113.781 63.776C114.463 63.9397 115.002 64.3603 115.428 65.0623C115.677 65.4701 116.113 65.7271 116.59 65.7486C116.611 65.7486 116.633 65.75 116.654 65.75C117.108 65.75 117.536 65.5361 117.808 65.1686C117.836 65.1327 120.463 61.6038 122.77 60.0863C125.712 58.1525 126.707 51.9878 126.876 50.7718Z" fill="white"/>
<path d="M123.706 75.5987C123.931 76.1457 124.464 76.4874 125.034 76.4874C125.185 76.4874 125.338 76.463 125.489 76.4127C126.241 76.1601 126.648 75.3475 126.395 74.5952C126.379 74.5507 126.335 74.443 126.315 74.3999C125.85 73.362 123.67 68.0127 126.552 64.5901C129.371 61.2464 134.776 65.7142 134.832 65.7587C135.438 66.2669 136.343 66.1894 136.854 65.5835C137.362 64.9777 137.287 64.0747 136.683 63.5636C136.516 63.4243 132.58 60.1481 128.635 60.4826C126.935 60.6276 125.496 61.3871 124.358 62.7409C120.476 67.348 122.859 73.7065 123.706 75.5987Z" fill="white"/>
<path d="M128.25 89.559C126.061 90.2711 124.314 92.5467 123.036 94.2063C122.714 94.6255 122.278 95.194 122.098 95.3577C121.457 95.7511 121.224 96.5823 121.583 97.2556C121.841 97.7409 122.337 98.018 122.852 98.018C123.079 98.018 123.309 97.9634 123.525 97.85C124.092 97.5499 124.552 96.9498 125.314 95.9578C126.302 94.6714 127.796 92.7275 129.14 92.2911C131.187 91.625 134.133 91.3795 135.687 92.8812C136.255 93.4325 137.164 93.4181 137.717 92.8481C138.268 92.2796 138.254 91.3694 137.684 90.8181C135.589 88.791 132.066 88.3201 128.25 89.559Z" fill="white"/>
<path d="M132.92 68.0069C131.098 68.0069 129.621 69.4799 129.621 71.2974C129.621 73.115 131.098 74.588 132.92 74.588C134.742 74.588 136.219 73.115 136.219 71.2974C136.219 69.4799 134.744 68.0069 132.92 68.0069Z" fill="white"/>
<path d="M109.797 68.9315C108.487 68.9315 107.424 69.991 107.424 71.2989C107.424 72.6068 108.487 73.6663 109.797 73.6663C111.108 73.6663 112.171 72.6068 112.171 71.2989C112.171 69.991 111.108 68.9315 109.797 68.9315Z" fill="white"/>
<path d="M208.376 48.376C210.168 48.4613 212.515 48.5467 215.416 48.632C218.317 48.7173 221.176 48.76 223.992 48.76C228.003 48.76 231.843 48.7173 235.512 48.632C239.181 48.5467 241.784 48.504 243.32 48.504C252.28 48.504 259.021 50.3813 263.544 54.136C268.067 57.8907 270.328 62.712 270.328 68.6C270.328 71.5867 269.688 74.5307 268.408 77.432C267.213 80.248 265.165 82.8507 262.264 85.24C259.448 87.544 255.651 89.4213 250.872 90.872V91.128C257.613 91.9813 262.861 93.6027 266.616 95.992C270.456 98.296 273.144 101.027 274.68 104.184C276.216 107.341 276.984 110.669 276.984 114.168C276.984 119.032 275.747 123.341 273.272 127.096C270.883 130.765 267.384 133.667 262.776 135.8C258.168 137.933 252.664 139 246.264 139C244.387 139 241.571 138.957 237.816 138.872C234.061 138.701 229.539 138.616 224.248 138.616C221.261 138.616 218.317 138.659 215.416 138.744C212.515 138.744 210.168 138.829 208.376 139V136.44C211.277 136.269 213.453 135.928 214.904 135.416C216.44 134.904 217.464 133.88 217.976 132.344C218.488 130.808 218.744 128.504 218.744 125.432V61.944C218.744 58.7867 218.488 56.4827 217.976 55.032C217.464 53.496 216.44 52.472 214.904 51.96C213.453 51.3627 211.277 51.0213 208.376 50.936V48.376ZM240.12 50.936C236.195 50.936 233.635 51.6613 232.44 53.112C231.245 54.5627 230.648 57.5067 230.648 61.944V125.432C230.648 128.419 230.904 130.68 231.416 132.216C231.928 133.752 232.867 134.776 234.232 135.288C235.597 135.8 237.603 136.056 240.248 136.056C248.611 136.056 254.669 134.136 258.424 130.296C262.264 126.371 264.184 120.824 264.184 113.656C264.184 107.085 262.392 102.008 258.808 98.424C255.309 94.84 249.507 93.048 241.4 93.048H228.216C228.216 93.048 228.216 92.7067 228.216 92.024C228.216 91.256 228.216 90.872 228.216 90.872H239.224C244.259 90.872 248.141 89.9333 250.872 88.056C253.603 86.0933 255.48 83.5333 256.504 80.376C257.528 77.1333 258.04 73.6773 258.04 70.008C258.04 63.6933 256.632 58.9573 253.816 55.8C251.085 52.5573 246.52 50.936 240.12 50.936ZM351.123 48.376C350.782 51.3627 350.526 54.264 350.355 57.08C350.27 59.896 350.227 62.0293 350.227 63.48C350.227 65.016 350.27 66.5093 350.355 67.96C350.44 69.3253 350.526 70.4773 350.611 71.416H347.667C347.155 66.3813 346.43 62.4133 345.491 59.512C344.552 56.5253 342.931 54.4347 340.627 53.24C338.408 51.96 335.038 51.32 330.515 51.32H319.891C316.99 51.32 314.771 51.576 313.235 52.088C311.784 52.5147 310.803 53.496 310.291 55.032C309.779 56.4827 309.523 58.7867 309.523 61.944V125.432C309.523 128.504 309.779 130.808 310.291 132.344C310.803 133.88 311.784 134.904 313.235 135.416C314.771 135.843 316.99 136.056 319.891 136.056H329.235C334.611 136.056 338.664 135.331 341.395 133.88C344.211 132.429 346.216 130.083 347.411 126.84C348.691 123.512 349.63 119.032 350.227 113.4H353.171C352.915 115.704 352.787 118.776 352.787 122.616C352.787 124.237 352.83 126.584 352.915 129.656C353.086 132.643 353.342 135.757 353.683 139C349.331 138.829 344.424 138.744 338.963 138.744C333.502 138.659 328.638 138.616 324.371 138.616C322.494 138.616 320.062 138.616 317.075 138.616C314.174 138.616 311.016 138.659 307.603 138.744C304.19 138.744 300.734 138.787 297.235 138.872C293.736 138.872 290.408 138.915 287.251 139V136.44C290.152 136.269 292.328 135.928 293.779 135.416C295.315 134.904 296.339 133.88 296.851 132.344C297.363 130.808 297.619 128.504 297.619 125.432V61.944C297.619 58.7867 297.363 56.4827 296.851 55.032C296.339 53.496 295.315 52.472 293.779 51.96C292.328 51.3627 290.152 51.0213 287.251 50.936V48.376C290.408 48.4613 293.736 48.5467 297.235 48.632C300.734 48.632 304.19 48.6747 307.603 48.76C311.016 48.76 314.174 48.76 317.075 48.76C320.062 48.76 322.494 48.76 324.371 48.76C328.296 48.76 332.734 48.76 337.683 48.76C342.718 48.6747 347.198 48.5467 351.123 48.376ZM329.107 92.152C329.107 92.152 329.107 92.5787 329.107 93.432C329.107 94.2853 329.107 94.712 329.107 94.712H305.683C305.683 94.712 305.683 94.2853 305.683 93.432C305.683 92.5787 305.683 92.152 305.683 92.152H329.107ZM332.819 75.256C332.478 80.12 332.307 83.832 332.307 86.392C332.392 88.952 332.435 91.2987 332.435 93.432C332.435 95.5653 332.478 97.912 332.563 100.472C332.648 103.032 332.862 106.744 333.203 111.608H330.259C329.918 108.877 329.491 106.232 328.979 103.672C328.552 101.027 327.528 98.8933 325.907 97.272C324.371 95.5653 321.726 94.712 317.971 94.712V92.152C320.787 92.152 322.92 91.5973 324.371 90.488C325.907 89.2933 327.016 87.8 327.699 86.008C328.382 84.216 328.851 82.3813 329.107 80.504C329.363 78.5413 329.619 76.792 329.875 75.256H332.819ZM439.878 46.584C445.425 46.584 449.905 47.4373 453.318 49.144C456.731 50.7653 459.931 52.6853 462.918 54.904C464.027 55.7573 464.881 56.184 465.478 56.184C467.099 56.184 468.166 53.5813 468.678 48.376H471.622C471.451 51.5333 471.323 55.3733 471.238 59.896C471.153 64.4187 471.11 70.392 471.11 77.816H468.166C467.569 74.232 466.843 70.776 465.99 67.448C465.137 64.12 463.729 61.2613 461.766 58.872C459.291 55.7147 456.049 53.2827 452.038 51.576C448.027 49.784 443.889 48.888 439.622 48.888C435.355 48.888 431.473 49.9547 427.974 52.088C424.561 54.136 421.617 57.1227 419.142 61.048C416.667 64.9733 414.747 69.7093 413.382 75.256C412.102 80.7173 411.462 86.904 411.462 93.816C411.462 109.176 413.937 120.44 418.886 127.608C423.835 134.691 431.515 138.232 441.926 138.232C444.998 138.232 447.643 137.805 449.862 136.952C452.166 136.013 453.958 135.117 455.238 134.264C456.859 133.155 457.883 132.131 458.31 131.192C458.737 130.168 458.95 128.845 458.95 127.224V114.936C458.95 111.437 458.609 108.835 457.926 107.128C457.243 105.421 455.963 104.269 454.086 103.672C452.294 103.075 449.606 102.733 446.022 102.648V100.088C447.558 100.173 449.35 100.259 451.398 100.344C453.446 100.344 455.579 100.387 457.798 100.472C460.102 100.472 462.193 100.472 464.07 100.472C466.886 100.472 469.403 100.429 471.622 100.344C473.926 100.259 475.846 100.173 477.382 100.088V102.648C475.505 102.733 474.097 103.032 473.158 103.544C472.219 104.056 471.579 105.08 471.238 106.616C470.982 108.152 470.854 110.499 470.854 113.656V139H468.294C468.209 137.549 467.867 135.971 467.27 134.264C466.758 132.557 465.947 131.704 464.838 131.704C464.326 131.704 463.814 131.832 463.302 132.088C462.79 132.344 461.894 132.941 460.614 133.88C457.798 136.013 454.811 137.72 451.654 139C448.497 140.195 444.827 140.792 440.646 140.792C431.857 140.792 424.305 139 417.99 135.416C411.761 131.747 406.982 126.499 403.654 119.672C400.326 112.845 398.662 104.696 398.662 95.224C398.662 85.24 400.454 76.6213 404.038 69.368C407.622 62.1147 412.486 56.5253 418.63 52.6C424.859 48.5893 431.942 46.584 439.878 46.584ZM487.126 48.376C488.918 48.4613 491.265 48.5467 494.166 48.632C497.067 48.7173 499.926 48.76 502.742 48.76C506.753 48.76 510.593 48.7173 514.262 48.632C517.931 48.5467 520.534 48.504 522.07 48.504C528.982 48.504 534.699 49.4853 539.222 51.448C543.83 53.4107 547.243 56.0987 549.462 59.512C551.766 62.84 552.918 66.5947 552.918 70.776C552.918 73.336 552.406 76.0667 551.382 78.968C550.358 81.8693 548.566 84.6 546.006 87.16C543.531 89.72 540.118 91.8533 535.766 93.56C531.414 95.1813 525.91 95.992 519.254 95.992H506.966V93.432H517.974C524.033 93.432 528.641 92.4933 531.798 90.616C535.041 88.6533 537.217 86.0933 538.326 82.936C539.521 79.6933 540.118 76.1093 540.118 72.184C540.118 65.4427 538.497 60.2373 535.254 56.568C532.097 52.8133 526.635 50.936 518.87 50.936C514.945 50.936 512.385 51.6613 511.19 53.112C509.995 54.5627 509.398 57.5067 509.398 61.944V125.432C509.398 128.504 509.654 130.808 510.166 132.344C510.678 133.88 511.659 134.904 513.11 135.416C514.646 135.928 516.865 136.269 519.766 136.44V139C517.803 138.829 515.329 138.744 512.342 138.744C509.441 138.659 506.497 138.616 503.51 138.616C500.182 138.616 497.067 138.659 494.166 138.744C491.265 138.744 488.918 138.829 487.126 139V136.44C490.027 136.269 492.203 135.928 493.654 135.416C495.19 134.904 496.214 133.88 496.726 132.344C497.238 130.808 497.494 128.504 497.494 125.432V61.944C497.494 58.7867 497.238 56.4827 496.726 55.032C496.214 53.496 495.19 52.472 493.654 51.96C492.203 51.3627 490.027 51.0213 487.126 50.936V48.376ZM507.478 93.816C512.086 93.9867 515.713 94.2 518.358 94.456C521.003 94.6267 523.137 94.7973 524.758 94.968C526.465 95.1387 528.086 95.352 529.622 95.608C535.339 96.5467 539.435 98.296 541.91 100.856C544.47 103.331 546.347 107.213 547.542 112.504L550.742 125.56C551.595 129.315 552.449 132.045 553.302 133.752C554.241 135.373 555.649 136.141 557.526 136.056C558.977 135.971 560.171 135.501 561.11 134.648C562.134 133.795 563.201 132.643 564.31 131.192L566.23 132.6C564.438 135.245 562.561 137.293 560.598 138.744C558.721 140.109 556.033 140.792 552.534 140.792C549.377 140.792 546.603 139.853 544.214 137.976C541.825 136.099 540.033 132.429 538.838 126.968L536.022 114.168C535.254 110.499 534.358 107.341 533.334 104.696C532.395 101.965 531.03 99.832 529.238 98.296C527.531 96.76 524.971 95.992 521.558 95.992H507.734L507.478 93.816ZM647.715 48.376V50.936C644.814 51.0213 642.595 51.448 641.059 52.216C639.608 52.984 638.627 54.2213 638.115 55.928C637.603 57.6347 637.347 60.0667 637.347 63.224V101.752C637.347 107.725 636.963 112.931 636.195 117.368C635.427 121.805 634.062 125.645 632.099 128.888C629.966 132.472 626.851 135.373 622.755 137.592C618.659 139.725 613.966 140.792 608.675 140.792C604.579 140.792 600.654 140.28 596.899 139.256C593.23 138.317 589.987 136.525 587.171 133.88C584.696 131.491 582.734 128.973 581.283 126.328C579.918 123.683 578.979 120.44 578.467 116.6C577.955 112.76 577.699 107.939 577.699 102.136V61.944C577.699 58.7867 577.443 56.4827 576.931 55.032C576.419 53.496 575.395 52.472 573.859 51.96C572.408 51.3627 570.232 51.0213 567.331 50.936V48.376C569.123 48.4613 571.47 48.5467 574.371 48.632C577.272 48.7173 580.387 48.76 583.715 48.76C586.702 48.76 589.646 48.7173 592.547 48.632C595.534 48.5467 598.008 48.4613 599.971 48.376V50.936C597.07 51.0213 594.851 51.3627 593.315 51.96C591.864 52.472 590.883 53.496 590.371 55.032C589.859 56.4827 589.603 58.7867 589.603 61.944V104.312C589.603 108.664 589.816 112.803 590.243 116.728C590.67 120.568 591.523 123.981 592.803 126.968C594.168 129.869 596.216 132.173 598.947 133.88C601.678 135.501 605.304 136.312 609.827 136.312C616.312 136.312 621.304 134.904 624.803 132.088C628.387 129.187 630.862 125.219 632.227 120.184C633.678 115.149 634.403 109.475 634.403 103.16V63.224C634.403 60.0667 634.019 57.6347 633.251 55.928C632.568 54.2213 631.374 52.984 629.667 52.216C627.96 51.448 625.656 51.0213 622.755 50.936V48.376C624.291 48.4613 626.296 48.5467 628.771 48.632C631.331 48.7173 633.678 48.76 635.811 48.76C638.03 48.76 640.206 48.7173 642.339 48.632C644.558 48.5467 646.35 48.4613 647.715 48.376ZM736.885 48.376V50.936C733.984 51.0213 731.765 51.448 730.229 52.216C728.778 52.984 727.797 54.2213 727.285 55.928C726.773 57.6347 726.517 60.0667 726.517 63.224V139.64C726.005 139.64 725.493 139.64 724.981 139.64C724.554 139.64 724.085 139.64 723.573 139.64L669.813 56.568V124.152C669.813 127.224 670.069 129.656 670.581 131.448C671.178 133.155 672.288 134.392 673.909 135.16C675.616 135.843 678.133 136.269 681.461 136.44V139C679.925 138.829 677.92 138.744 675.445 138.744C672.97 138.659 670.624 138.616 668.405 138.616C666.272 138.616 664.096 138.659 661.877 138.744C659.744 138.744 657.952 138.829 656.501 139V136.44C659.402 136.269 661.578 135.843 663.029 135.16C664.565 134.392 665.589 133.155 666.101 131.448C666.613 129.656 666.869 127.224 666.869 124.152V61.944C666.869 58.7867 666.613 56.4827 666.101 55.032C665.589 53.496 664.565 52.472 663.029 51.96C661.578 51.3627 659.402 51.0213 656.501 50.936V48.376C657.952 48.4613 659.744 48.5467 661.877 48.632C664.096 48.7173 666.272 48.76 668.405 48.76C670.282 48.76 672.074 48.7173 673.781 48.632C675.488 48.5467 677.024 48.4613 678.389 48.376L723.573 118.008V63.224C723.573 60.0667 723.274 57.6347 722.677 55.928C722.165 54.2213 721.056 52.984 719.349 52.216C717.728 51.448 715.253 51.0213 711.925 50.936V48.376C713.461 48.4613 715.466 48.5467 717.941 48.632C720.501 48.7173 722.848 48.76 724.981 48.76C727.2 48.76 729.376 48.7173 731.509 48.632C733.728 48.5467 735.52 48.4613 736.885 48.376ZM781.82 48.376C797.095 48.376 808.444 52.216 815.868 59.896C823.292 67.4907 827.004 78.4133 827.004 92.664C827.004 101.965 825.169 110.115 821.5 117.112C817.916 124.024 812.668 129.4 805.756 133.24C798.844 137.08 790.481 139 780.668 139C779.388 139 777.681 138.957 775.548 138.872C773.415 138.787 771.196 138.744 768.892 138.744C766.673 138.659 764.625 138.616 762.748 138.616C759.761 138.616 756.817 138.659 753.916 138.744C751.015 138.744 748.668 138.829 746.876 139V136.44C749.777 136.269 751.953 135.928 753.404 135.416C754.94 134.904 755.964 133.88 756.476 132.344C756.988 130.808 757.244 128.504 757.244 125.432V61.944C757.244 58.7867 756.988 56.4827 756.476 55.032C755.964 53.496 754.94 52.472 753.404 51.96C751.953 51.3627 749.777 51.0213 746.876 50.936V48.376C748.668 48.4613 751.015 48.5893 753.916 48.76C756.817 48.8453 759.676 48.8453 762.492 48.76C765.479 48.6747 768.849 48.5893 772.604 48.504C776.359 48.4187 779.431 48.376 781.82 48.376ZM778.62 50.68C774.695 50.68 772.135 51.4053 770.94 52.856C769.745 54.3067 769.148 57.2507 769.148 61.688V125.688C769.148 130.125 769.745 133.069 770.94 134.52C772.22 135.971 774.823 136.696 778.748 136.696C788.049 136.696 795.26 135.032 800.38 131.704C805.5 128.291 809.084 123.341 811.132 116.856C813.18 110.371 814.204 102.477 814.204 93.176C814.204 83.6187 813.052 75.7253 810.748 69.496C808.529 63.1813 804.817 58.488 799.612 55.416C794.492 52.2587 787.495 50.68 778.62 50.68ZM906.889 48.376V50.936C905.268 51.2773 903.646 52.344 902.025 54.136C900.404 55.8427 898.612 58.5733 896.649 62.328L870.793 113.528H868.617L838.665 58.232C836.958 55.0747 835.508 53.112 834.313 52.344C833.204 51.4907 832.18 51.064 831.241 51.064V48.376C832.948 48.4613 834.697 48.5467 836.489 48.632C838.366 48.7173 840.372 48.76 842.505 48.76C845.321 48.76 848.308 48.76 851.465 48.76C854.708 48.6747 857.694 48.5467 860.425 48.376V51.064C858.292 51.064 856.414 51.32 854.793 51.832C853.172 52.344 852.105 53.2827 851.593 54.648C851.081 56.0133 851.465 57.9333 852.745 60.408L874.377 101.88L873.353 102.648L890.377 68.728C892.766 64.0347 893.918 60.408 893.833 57.848C893.833 55.288 892.852 53.5387 890.889 52.6C888.926 51.576 886.153 51.0213 882.569 50.936V48.376C885.044 48.4613 887.561 48.5467 890.121 48.632C892.681 48.7173 895.07 48.76 897.289 48.76C899.508 48.76 901.342 48.7173 902.793 48.632C904.244 48.5467 905.609 48.4613 906.889 48.376ZM876.553 100.088V125.432C876.553 128.504 876.809 130.808 877.321 132.344C877.833 133.88 878.814 134.904 880.265 135.416C881.801 135.928 884.02 136.269 886.921 136.44V139C884.958 138.829 882.484 138.744 879.497 138.744C876.596 138.659 873.652 138.616 870.665 138.616C867.337 138.616 864.222 138.659 861.321 138.744C858.42 138.744 856.073 138.829 854.281 139V136.44C857.182 136.269 859.358 135.928 860.809 135.416C862.345 134.904 863.369 133.88 863.881 132.344C864.393 130.808 864.649 128.504 864.649 125.432V99.192L871.561 107.128L876.553 100.088Z" fill="white"/>
<path d="M239.968 174.016C239.84 175.232 239.744 176.416 239.68 177.568C239.648 178.688 239.632 179.552 239.632 180.16C239.632 180.928 239.648 181.648 239.68 182.32C239.712 182.992 239.744 183.584 239.776 184.096H238.672C238.448 181.856 238.144 180.096 237.76 178.816C237.376 177.504 236.704 176.56 235.744 175.984C234.784 175.408 233.296 175.12 231.28 175.12H228.256C227.168 175.12 226.336 175.216 225.76 175.408C225.216 175.568 224.848 175.936 224.656 176.512C224.464 177.056 224.368 177.92 224.368 179.104V202.912C224.368 204.064 224.48 204.928 224.704 205.504C224.96 206.08 225.44 206.464 226.144 206.656C226.848 206.848 227.872 206.976 229.216 207.04V208C228.384 207.936 227.328 207.904 226.048 207.904C224.768 207.872 223.472 207.856 222.16 207.856C220.912 207.856 219.744 207.872 218.656 207.904C217.568 207.904 216.688 207.936 216.016 208V207.04C217.104 206.976 217.92 206.848 218.464 206.656C219.04 206.464 219.424 206.08 219.616 205.504C219.808 204.928 219.904 204.064 219.904 202.912V179.104C219.904 177.92 219.808 177.056 219.616 176.512C219.424 175.936 219.04 175.552 218.464 175.36C217.92 175.136 217.104 175.008 216.016 174.976V174.016C217.2 174.048 218.448 174.08 219.76 174.112C221.072 174.112 222.368 174.128 223.648 174.16C224.928 174.16 226.112 174.16 227.2 174.16C228.32 174.16 229.232 174.16 229.936 174.16C231.408 174.16 233.072 174.16 234.928 174.16C236.816 174.128 238.496 174.08 239.968 174.016ZM232.528 190.912C232.528 190.912 232.528 191.072 232.528 191.392C232.528 191.712 232.528 191.872 232.528 191.872H222.928C222.928 191.872 222.928 191.712 222.928 191.392C222.928 191.072 222.928 190.912 222.928 190.912H232.528ZM233.44 184.576C233.312 186.4 233.248 187.792 233.248 188.752C233.28 189.712 233.296 190.592 233.296 191.392C233.296 192.192 233.312 193.072 233.344 194.032C233.376 194.992 233.456 196.384 233.584 198.208H232.48C232.352 197.184 232.192 196.192 232 195.232C231.84 194.24 231.456 193.44 230.848 192.832C230.272 192.192 229.28 191.872 227.872 191.872V190.912C228.928 190.912 229.728 190.704 230.272 190.288C230.848 189.84 231.264 189.28 231.52 188.608C231.776 187.936 231.952 187.248 232.048 186.544C232.144 185.808 232.24 185.152 232.336 184.576H233.44ZM300.427 173.344C303.467 173.344 306.123 174.032 308.395 175.408C310.699 176.784 312.475 178.768 313.723 181.36C315.003 183.92 315.643 187.04 315.643 190.72C315.643 194.304 314.987 197.44 313.675 200.128C312.395 202.816 310.603 204.912 308.299 206.416C305.995 207.92 303.355 208.672 300.379 208.672C297.339 208.672 294.667 207.984 292.363 206.608C290.091 205.232 288.315 203.248 287.035 200.656C285.787 198.064 285.163 194.944 285.163 191.296C285.163 187.712 285.819 184.576 287.131 181.888C288.443 179.2 290.235 177.104 292.507 175.6C294.811 174.096 297.451 173.344 300.427 173.344ZM300.235 174.208C298.155 174.208 296.347 174.928 294.811 176.368C293.275 177.808 292.075 179.792 291.211 182.32C290.379 184.848 289.963 187.776 289.963 191.104C289.963 194.496 290.427 197.456 291.355 199.984C292.315 202.48 293.595 204.416 295.195 205.792C296.827 207.136 298.619 207.808 300.571 207.808C302.651 207.808 304.459 207.088 305.995 205.648C307.531 204.208 308.715 202.224 309.547 199.696C310.411 197.136 310.843 194.208 310.843 190.912C310.843 187.488 310.363 184.528 309.403 182.032C308.475 179.536 307.211 177.616 305.611 176.272C304.011 174.896 302.219 174.208 300.235 174.208ZM391.116 174.016V174.976C390.028 175.008 389.196 175.168 388.62 175.456C388.076 175.744 387.708 176.208 387.516 176.848C387.324 177.488 387.228 178.4 387.228 179.584V194.032C387.228 196.272 387.084 198.224 386.796 199.888C386.508 201.552 385.996 202.992 385.26 204.208C384.46 205.552 383.292 206.64 381.756 207.472C380.22 208.272 378.46 208.672 376.476 208.672C374.94 208.672 373.468 208.48 372.06 208.096C370.684 207.744 369.468 207.072 368.412 206.08C367.484 205.184 366.748 204.24 366.204 203.248C365.692 202.256 365.34 201.04 365.148 199.6C364.956 198.16 364.86 196.352 364.86 194.176V179.104C364.86 177.92 364.764 177.056 364.572 176.512C364.38 175.936 363.996 175.552 363.42 175.36C362.876 175.136 362.06 175.008 360.972 174.976V174.016C361.644 174.048 362.524 174.08 363.612 174.112C364.7 174.144 365.868 174.16 367.116 174.16C368.236 174.16 369.34 174.144 370.428 174.112C371.548 174.08 372.476 174.048 373.212 174.016V174.976C372.124 175.008 371.292 175.136 370.716 175.36C370.172 175.552 369.804 175.936 369.612 176.512C369.42 177.056 369.324 177.92 369.324 179.104V194.992C369.324 196.624 369.404 198.176 369.564 199.648C369.724 201.088 370.044 202.368 370.524 203.488C371.036 204.576 371.804 205.44 372.828 206.08C373.852 206.688 375.212 206.992 376.908 206.992C379.34 206.992 381.212 206.464 382.524 205.408C383.868 204.32 384.796 202.832 385.308 200.944C385.852 199.056 386.124 196.928 386.124 194.56V179.584C386.124 178.4 385.98 177.488 385.692 176.848C385.436 176.208 384.988 175.744 384.348 175.456C383.708 175.168 382.844 175.008 381.756 174.976V174.016C382.332 174.048 383.084 174.08 384.012 174.112C384.972 174.144 385.852 174.16 386.652 174.16C387.484 174.16 388.3 174.144 389.1 174.112C389.932 174.08 390.604 174.048 391.116 174.016ZM466.315 174.016V174.976C465.227 175.008 464.395 175.168 463.819 175.456C463.275 175.744 462.907 176.208 462.715 176.848C462.523 177.488 462.427 178.4 462.427 179.584V208.24C462.235 208.24 462.043 208.24 461.851 208.24C461.691 208.24 461.515 208.24 461.323 208.24L441.163 177.088V202.432C441.163 203.584 441.259 204.496 441.451 205.168C441.675 205.808 442.091 206.272 442.699 206.56C443.339 206.816 444.283 206.976 445.531 207.04V208C444.955 207.936 444.203 207.904 443.275 207.904C442.347 207.872 441.467 207.856 440.635 207.856C439.835 207.856 439.019 207.872 438.187 207.904C437.387 207.904 436.715 207.936 436.171 208V207.04C437.259 206.976 438.075 206.816 438.619 206.56C439.195 206.272 439.579 205.808 439.771 205.168C439.963 204.496 440.059 203.584 440.059 202.432V179.104C440.059 177.92 439.963 177.056 439.771 176.512C439.579 175.936 439.195 175.552 438.619 175.36C438.075 175.136 437.259 175.008 436.171 174.976V174.016C436.715 174.048 437.387 174.08 438.187 174.112C439.019 174.144 439.835 174.16 440.635 174.16C441.339 174.16 442.011 174.144 442.651 174.112C443.291 174.08 443.867 174.048 444.379 174.016L461.323 200.128V179.584C461.323 178.4 461.211 177.488 460.987 176.848C460.795 176.208 460.379 175.744 459.739 175.456C459.131 175.168 458.203 175.008 456.955 174.976V174.016C457.531 174.048 458.283 174.08 459.211 174.112C460.171 174.144 461.051 174.16 461.851 174.16C462.683 174.16 463.499 174.144 464.299 174.112C465.131 174.08 465.803 174.048 466.315 174.016ZM524.926 174.016C530.654 174.016 534.91 175.456 537.694 178.336C540.478 181.184 541.87 185.28 541.87 190.624C541.87 194.112 541.182 197.168 539.806 199.792C538.462 202.384 536.494 204.4 533.902 205.84C531.31 207.28 528.174 208 524.494 208C524.014 208 523.374 207.984 522.574 207.952C521.774 207.92 520.942 207.904 520.078 207.904C519.246 207.872 518.478 207.856 517.774 207.856C516.654 207.856 515.55 207.872 514.462 207.904C513.374 207.904 512.494 207.936 511.822 208V207.04C512.91 206.976 513.726 206.848 514.27 206.656C514.846 206.464 515.23 206.08 515.422 205.504C515.614 204.928 515.71 204.064 515.71 202.912V179.104C515.71 177.92 515.614 177.056 515.422 176.512C515.23 175.936 514.846 175.552 514.27 175.36C513.726 175.136 512.91 175.008 511.822 174.976V174.016C512.494 174.048 513.374 174.096 514.462 174.16C515.55 174.192 516.622 174.192 517.678 174.16C518.798 174.128 520.062 174.096 521.47 174.064C522.878 174.032 524.03 174.016 524.926 174.016ZM523.726 174.88C522.254 174.88 521.294 175.152 520.846 175.696C520.398 176.24 520.174 177.344 520.174 179.008V203.008C520.174 204.672 520.398 205.776 520.846 206.32C521.326 206.864 522.302 207.136 523.774 207.136C527.262 207.136 529.966 206.512 531.886 205.264C533.806 203.984 535.15 202.128 535.918 199.696C536.686 197.264 537.07 194.304 537.07 190.816C537.07 187.232 536.638 184.272 535.774 181.936C534.942 179.568 533.55 177.808 531.598 176.656C529.678 175.472 527.054 174.88 523.726 174.88ZM600.726 173.776L612.438 203.968C612.918 205.184 613.462 206 614.07 206.416C614.678 206.8 615.238 207.008 615.75 207.04V208C615.11 207.936 614.326 207.904 613.398 207.904C612.47 207.872 611.542 207.856 610.614 207.856C609.366 207.856 608.198 207.872 607.11 207.904C606.022 207.904 605.142 207.936 604.47 208V207.04C606.102 206.976 607.142 206.704 607.59 206.224C608.038 205.712 607.942 204.64 607.302 203.008L598.374 179.152L599.142 178.528L590.79 200.224C590.278 201.504 589.974 202.592 589.878 203.488C589.782 204.352 589.862 205.04 590.118 205.552C590.406 206.064 590.87 206.432 591.51 206.656C592.182 206.88 593.014 207.008 594.006 207.04V208C593.11 207.936 592.166 207.904 591.174 207.904C590.214 207.872 589.318 207.856 588.486 207.856C587.686 207.856 586.998 207.872 586.422 207.904C585.878 207.904 585.366 207.936 584.886 208V207.04C585.526 206.88 586.182 206.512 586.854 205.936C587.526 205.328 588.134 204.304 588.678 202.864L599.958 173.776C600.086 173.776 600.214 173.776 600.342 173.776C600.47 173.776 600.598 173.776 600.726 173.776ZM606.582 194.176V195.136H592.278L592.758 194.176H606.582ZM683.242 174.016C683.114 175.232 683.018 176.416 682.954 177.568C682.922 178.688 682.906 179.552 682.906 180.16C682.906 180.928 682.922 181.648 682.954 182.32C682.986 182.992 683.018 183.584 683.05 184.096H681.946C681.722 181.856 681.418 180.096 681.034 178.816C680.65 177.504 679.978 176.56 679.018 175.984C678.058 175.408 676.57 175.12 674.554 175.12H671.962V202.432C671.962 203.712 672.074 204.672 672.298 205.312C672.554 205.952 673.034 206.384 673.738 206.608C674.442 206.832 675.466 206.976 676.81 207.04V208C675.978 207.936 674.922 207.904 673.642 207.904C672.362 207.872 671.066 207.856 669.754 207.856C668.314 207.856 666.954 207.872 665.674 207.904C664.426 207.904 663.418 207.936 662.65 208V207.04C663.994 206.976 665.018 206.832 665.722 206.608C666.426 206.384 666.89 205.952 667.114 205.312C667.37 204.672 667.498 203.712 667.498 202.432V175.12H664.906C662.922 175.12 661.434 175.408 660.442 175.984C659.482 176.56 658.81 177.504 658.426 178.816C658.042 180.096 657.738 181.856 657.514 184.096H656.41C656.474 183.584 656.506 182.992 656.506 182.32C656.538 181.648 656.554 180.928 656.554 180.16C656.554 179.552 656.522 178.688 656.458 177.568C656.426 176.416 656.346 175.232 656.218 174.016C657.562 174.048 659.018 174.08 660.586 174.112C662.186 174.144 663.786 174.16 665.386 174.16C666.986 174.16 668.442 174.16 669.754 174.16C671.066 174.16 672.506 174.16 674.074 174.16C675.674 174.16 677.274 174.144 678.874 174.112C680.474 174.08 681.93 174.048 683.242 174.016ZM740.654 174.016V174.976C739.566 175.008 738.734 175.136 738.158 175.36C737.614 175.552 737.246 175.936 737.054 176.512C736.862 177.056 736.766 177.92 736.766 179.104V202.912C736.766 204.064 736.862 204.928 737.054 205.504C737.246 206.08 737.614 206.464 738.158 206.656C738.734 206.848 739.566 206.976 740.654 207.04V208C739.918 207.936 738.99 207.904 737.87 207.904C736.782 207.872 735.678 207.856 734.558 207.856C733.31 207.856 732.142 207.872 731.054 207.904C729.966 207.904 729.086 207.936 728.414 208V207.04C729.502 206.976 730.318 206.848 730.862 206.656C731.438 206.464 731.822 206.08 732.014 205.504C732.206 204.928 732.302 204.064 732.302 202.912V179.104C732.302 177.92 732.206 177.056 732.014 176.512C731.822 175.936 731.438 175.552 730.862 175.36C730.318 175.136 729.502 175.008 728.414 174.976V174.016C729.086 174.048 729.966 174.08 731.054 174.112C732.142 174.144 733.31 174.16 734.558 174.16C735.678 174.16 736.782 174.144 737.87 174.112C738.99 174.08 739.918 174.048 740.654 174.016ZM801.857 173.344C804.897 173.344 807.553 174.032 809.825 175.408C812.129 176.784 813.905 178.768 815.153 181.36C816.433 183.92 817.073 187.04 817.073 190.72C817.073 194.304 816.417 197.44 815.105 200.128C813.825 202.816 812.033 204.912 809.729 206.416C807.425 207.92 804.785 208.672 801.809 208.672C798.769 208.672 796.097 207.984 793.793 206.608C791.521 205.232 789.745 203.248 788.465 200.656C787.217 198.064 786.593 194.944 786.593 191.296C786.593 187.712 787.249 184.576 788.561 181.888C789.873 179.2 791.665 177.104 793.937 175.6C796.241 174.096 798.881 173.344 801.857 173.344ZM801.665 174.208C799.585 174.208 797.777 174.928 796.241 176.368C794.705 177.808 793.505 179.792 792.641 182.32C791.809 184.848 791.393 187.776 791.393 191.104C791.393 194.496 791.857 197.456 792.785 199.984C793.745 202.48 795.025 204.416 796.625 205.792C798.257 207.136 800.049 207.808 802.001 207.808C804.081 207.808 805.889 207.088 807.425 205.648C808.961 204.208 810.145 202.224 810.977 199.696C811.841 197.136 812.273 194.208 812.273 190.912C812.273 187.488 811.793 184.528 810.833 182.032C809.905 179.536 808.641 177.616 807.041 176.272C805.441 174.896 803.649 174.208 801.665 174.208ZM893.172 174.016V174.976C892.084 175.008 891.252 175.168 890.676 175.456C890.132 175.744 889.764 176.208 889.572 176.848C889.38 177.488 889.284 178.4 889.284 179.584V208.24C889.092 208.24 888.9 208.24 888.708 208.24C888.548 208.24 888.372 208.24 888.18 208.24L868.02 177.088V202.432C868.02 203.584 868.116 204.496 868.308 205.168C868.532 205.808 868.948 206.272 869.556 206.56C870.196 206.816 871.14 206.976 872.388 207.04V208C871.812 207.936 871.06 207.904 870.132 207.904C869.204 207.872 868.324 207.856 867.492 207.856C866.692 207.856 865.876 207.872 865.044 207.904C864.244 207.904 863.572 207.936 863.028 208V207.04C864.116 206.976 864.932 206.816 865.476 206.56C866.052 206.272 866.436 205.808 866.628 205.168C866.82 204.496 866.916 203.584 866.916 202.432V179.104C866.916 177.92 866.82 177.056 866.628 176.512C866.436 175.936 866.052 175.552 865.476 175.36C864.932 175.136 864.116 175.008 863.028 174.976V174.016C863.572 174.048 864.244 174.08 865.044 174.112C865.876 174.144 866.692 174.16 867.492 174.16C868.196 174.16 868.868 174.144 869.508 174.112C870.148 174.08 870.724 174.048 871.236 174.016L888.18 200.128V179.584C888.18 178.4 888.068 177.488 887.844 176.848C887.652 176.208 887.236 175.744 886.596 175.456C885.988 175.168 885.06 175.008 883.812 174.976V174.016C884.388 174.048 885.14 174.08 886.068 174.112C887.028 174.144 887.908 174.16 888.708 174.16C889.54 174.16 890.356 174.144 891.156 174.112C891.988 174.08 892.66 174.048 893.172 174.016Z" fill="white"/>
</svg>
