<svg width="1200" height="630" viewBox="0 0 1200 630" xmlns="http://www.w3.org/2000/svg">
  <defs>
    <radialGradient id="bgGlow" cx="85%" cy="50%" r="75%">
      <stop offset="0%" stop-color="#1a2a52" stop-opacity="0.7"/>
      <stop offset="100%" stop-color="#0a1220" stop-opacity="0"/>
    </radialGradient>
    <linearGradient id="swordGrad" x1="80.5" y1="407.256" x2="80.5" y2="158.256" gradientUnits="userSpaceOnUse">
      <stop stop-color="#F5782B"/>
      <stop offset="1" stop-color="#FF4700"/>
    </linearGradient>
  </defs>

  <!-- Deep navy background -->
  <rect width="1200" height="630" fill="#0A1220"/>

  <!-- Subtle right-side glow -->
  <rect width="1200" height="630" fill="url(#bgGlow)"/>

  <!-- OHB Symbol — right side, proper scale, full color -->
  <g transform="translate(940, 85) scale(1.06)">
    <path d="M38 146V115.017H55.765V41.593H38V13.7936C44.0627 13.7936 50.6893 12.6618 57.8799 10.3982C65.0705 8.13469 72.1201 4.6686 79.0287 0H101.235V115.017H119V146H38Z" fill="#FFFFFF"/>
    <path d="M110.5 150.756V368.747C110.5 375.739 108.245 382.545 104.07 388.154L86.5166 411.735L80.5 419.817L74.4834 411.735L56.9297 388.154C52.7547 382.545 50.5 375.739 50.5 368.747V150.756H110.5Z" fill="url(#swordGrad)" stroke="#0A1220" stroke-width="10"/>
    <path d="M0 133H161V145.5V158H0V145.5V133Z" fill="#FFFFFF"/>
    <rect x="75" y="154" width="8" height="141" fill="#FFFFFF"/>
  </g>

  <!-- Top eyebrow -->
  <text x="80" y="118"
    font-family="Inter, Helvetica, Arial, sans-serif"
    font-size="20"
    font-weight="700"
    letter-spacing="4"
    fill="#F5782B">ONE HEARTBEAT WARRIORS</text>

  <!-- Small divider under eyebrow -->
  <rect x="80" y="135" width="48" height="3" fill="#F5782B"/>

  <!-- Massive headline -->
  <text x="78" y="268"
    font-family="Barlow Condensed, Impact, Arial, sans-serif"
    font-size="148"
    font-weight="900"
    letter-spacing="-1"
    fill="#FFFFFF">WARRIOR</text>

  <text x="78" y="400"
    font-family="Barlow Condensed, Impact, Arial, sans-serif"
    font-size="148"
    font-weight="900"
    letter-spacing="-1"
    fill="#FFFFFF">CULTURE.</text>

  <!-- Tagline -->
  <text x="82" y="470"
    font-family="Inter, Helvetica, Arial, sans-serif"
    font-size="26"
    font-weight="500"
    fill="#FFFFFF" fill-opacity="0.75">Mental toughness &amp; leadership training</text>
  <text x="82" y="503"
    font-family="Inter, Helvetica, Arial, sans-serif"
    font-size="26"
    font-weight="500"
    fill="#FFFFFF" fill-opacity="0.75">for teams, coaches, and organizations.</text>

  <!-- Bottom rule -->
  <rect x="80" y="555" width="520" height="1" fill="#FFFFFF" fill-opacity="0.2"/>

  <!-- Attribution -->
  <text x="80" y="590"
    font-family="Inter, Helvetica, Arial, sans-serif"
    font-size="18"
    font-weight="700"
    letter-spacing="3"
    fill="#FFFFFF" fill-opacity="0.5">COACH TOMMY BROWN</text>
  <text x="1120" y="590"
    text-anchor="end"
    font-family="Inter, Helvetica, Arial, sans-serif"
    font-size="18"
    font-weight="500"
    letter-spacing="1"
    fill="#FFFFFF" fill-opacity="0.35">oneheartbeatwarriors.com</text>
</svg>
