<svg width="2569" height="480" viewBox="0 0 2569 480" fill="none" xmlns="http://www.w3.org/2000/svg">
<path d="M662 193V162.017H679.765V88.593H662V60.7936C668.063 60.7936 674.689 59.6618 681.88 57.3982C689.07 55.1347 696.12 51.6686 703.029 47H725.235V162.017H743V193H662Z" fill="url(#paint0_linear_112_259)"/>
<path d="M682 205.256V415.747L682.005 416.251C682.11 421.452 683.835 426.496 686.946 430.675L704.5 454.256L722.054 430.675C725.165 426.496 726.89 421.452 726.995 416.251L727 415.747V205.256H682ZM742 415.747C742 424.353 739.225 432.729 734.086 439.632L704.5 479.376L674.914 439.632C669.775 432.729 667 424.353 667 415.747V190.256H742V415.747Z" fill="url(#paint1_linear_112_259)"/>
<path d="M624 180H785V205H624V180Z" fill="url(#paint2_linear_112_259)"/>
<path d="M700.5 201H708.5V342L704.5 354L700.5 342V201Z" fill="url(#paint3_linear_112_259)"/>
<path d="M96.8 403.2C69.8667 403.2 48.2667 395.467 32 380C16 364.533 8 343.733 8 317.6V202.4C8 176.267 16 155.467 32 140C48.2667 124.533 69.8667 116.8 96.8 116.8C123.733 116.8 145.2 124.533 161.2 140C177.467 155.467 185.6 176.267 185.6 202.4V317.6C185.6 343.733 177.467 364.533 161.2 380C145.2 395.467 123.733 403.2 96.8 403.2ZM96.8 338.8C101.067 338.8 104.4 337.2 106.8 334C109.2 330.8 110.4 326.4 110.4 320.8V199.2C110.4 193.6 109.2 189.2 106.8 186C104.4 182.8 101.067 181.2 96.8 181.2C92.5333 181.2 89.2 182.8 86.8 186C84.4 189.2 83.2 193.6 83.2 199.2V320.8C83.2 326.4 84.4 330.8 86.8 334C89.2 337.2 92.5333 338.8 96.8 338.8ZM320.15 126C320.15 124.133 320.683 122.667 321.75 121.6C322.817 120.533 324.283 120 326.15 120H388.55C390.417 120 391.883 120.533 392.95 121.6C394.017 122.667 394.55 124.133 394.55 126V394C394.55 395.867 394.017 397.333 392.95 398.4C391.883 399.467 390.417 400 388.55 400H317.35C313.883 400 311.75 398.267 310.95 394.8L280.55 273.6C280.283 272.8 279.75 272.4 278.95 272.4C278.15 272.4 277.75 272.933 277.75 274L278.55 394C278.55 395.867 278.017 397.333 276.95 398.4C275.883 399.467 274.417 400 272.55 400H210.15C208.283 400 206.817 399.467 205.75 398.4C204.683 397.333 204.15 395.867 204.15 394V126C204.15 124.133 204.683 122.667 205.75 121.6C206.817 120.533 208.283 120 210.15 120H280.55C284.017 120 286.15 121.733 286.95 125.2L317.75 246.8C318.017 247.867 318.55 248.4 319.35 248.4C320.15 248.4 320.55 247.867 320.55 246.8L320.15 126ZM575.478 178.4C575.478 180.267 574.945 181.733 573.878 182.8C572.811 183.867 571.345 184.4 569.478 184.4H493.078C491.478 184.4 490.678 185.2 490.678 186.8V225.2C490.678 226.8 491.478 227.6 493.078 227.6H532.678C534.545 227.6 536.011 228.133 537.078 229.2C538.145 230.267 538.678 231.733 538.678 233.6V286C538.678 287.867 538.145 289.333 537.078 290.4C536.011 291.467 534.545 292 532.678 292H493.078C491.478 292 490.678 292.8 490.678 294.4V333.2C490.678 334.8 491.478 335.6 493.078 335.6H569.478C571.345 335.6 572.811 336.133 573.878 337.2C574.945 338.267 575.478 339.733 575.478 341.6V394C575.478 395.867 574.945 397.333 573.878 398.4C572.811 399.467 571.345 400 569.478 400H421.478C419.611 400 418.145 399.467 417.078 398.4C416.011 397.333 415.478 395.867 415.478 394V126C415.478 124.133 416.011 122.667 417.078 121.6C418.145 120.533 419.611 120 421.478 120H569.478C571.345 120 572.811 120.533 573.878 121.6C574.945 122.667 575.478 124.133 575.478 126V178.4Z" fill="white"/>
<path d="M928.8 126C928.8 124.133 929.333 122.667 930.4 121.6C931.467 120.533 932.933 120 934.8 120H998C999.867 120 1001.33 120.533 1002.4 121.6C1003.47 122.667 1004 124.133 1004 126V394C1004 395.867 1003.47 397.333 1002.4 398.4C1001.33 399.467 999.867 400 998 400H934.8C932.933 400 931.467 399.467 930.4 398.4C929.333 397.333 928.8 395.867 928.8 394V294.4C928.8 292.8 928 292 926.4 292H908C906.4 292 905.6 292.8 905.6 294.4V394C905.6 395.867 905.067 397.333 904 398.4C902.933 399.467 901.467 400 899.6 400H836.4C834.533 400 833.067 399.467 832 398.4C830.933 397.333 830.4 395.867 830.4 394V126C830.4 124.133 830.933 122.667 832 121.6C833.067 120.533 834.533 120 836.4 120H899.6C901.467 120 902.933 120.533 904 121.6C905.067 122.667 905.6 124.133 905.6 126V225.2C905.6 226.8 906.4 227.6 908 227.6H926.4C928 227.6 928.8 226.8 928.8 225.2V126ZM1184.93 178.4C1184.93 180.267 1184.4 181.733 1183.33 182.8C1182.26 183.867 1180.8 184.4 1178.93 184.4H1102.53C1100.93 184.4 1100.13 185.2 1100.13 186.8V225.2C1100.13 226.8 1100.93 227.6 1102.53 227.6H1142.13C1144 227.6 1145.46 228.133 1146.53 229.2C1147.6 230.267 1148.13 231.733 1148.13 233.6V286C1148.13 287.867 1147.6 289.333 1146.53 290.4C1145.46 291.467 1144 292 1142.13 292H1102.53C1100.93 292 1100.13 292.8 1100.13 294.4V333.2C1100.13 334.8 1100.93 335.6 1102.53 335.6H1178.93C1180.8 335.6 1182.26 336.133 1183.33 337.2C1184.4 338.267 1184.93 339.733 1184.93 341.6V394C1184.93 395.867 1184.4 397.333 1183.33 398.4C1182.26 399.467 1180.8 400 1178.93 400H1030.93C1029.06 400 1027.6 399.467 1026.53 398.4C1025.46 397.333 1024.93 395.867 1024.93 394V126C1024.93 124.133 1025.46 122.667 1026.53 121.6C1027.6 120.533 1029.06 120 1030.93 120H1178.93C1180.8 120 1182.26 120.533 1183.33 121.6C1184.4 122.667 1184.93 124.133 1184.93 126V178.4ZM1332.57 400C1328.57 400 1326.44 398.133 1326.17 394.4L1321.77 364.4C1321.77 363.867 1321.51 363.333 1320.97 362.8C1320.44 362.267 1319.77 362 1318.97 362H1283.77C1282.97 362 1282.31 362.267 1281.77 362.8C1281.24 363.333 1280.97 363.867 1280.97 364.4L1276.97 394.4C1276.71 398.133 1274.57 400 1270.57 400H1207.77C1203.51 400 1201.77 397.867 1202.57 393.6L1259.37 125.2C1260.17 121.733 1262.44 120 1266.17 120H1338.97C1342.71 120 1344.97 121.733 1345.77 125.2L1402.57 393.6V395.2C1402.57 398.4 1400.71 400 1396.97 400H1332.57ZM1289.77 302C1289.77 303.6 1290.44 304.4 1291.77 304.4H1310.57C1312.44 304.4 1313.11 303.6 1312.57 302L1301.77 230C1301.51 228.933 1301.11 228.4 1300.57 228.4C1300.04 228.4 1299.64 228.933 1299.37 230L1289.77 302ZM1528.27 400C1524.81 400 1522.67 398.267 1521.87 394.8L1497.47 294.4C1496.94 293.067 1496.41 292.4 1495.87 292.4C1494.81 292.4 1494.27 293.2 1494.27 294.8V394C1494.27 395.867 1493.74 397.333 1492.67 398.4C1491.61 399.467 1490.14 400 1488.27 400H1425.07C1423.21 400 1421.74 399.467 1420.67 398.4C1419.61 397.333 1419.07 395.867 1419.07 394V126C1419.07 124.133 1419.61 122.667 1420.67 121.6C1421.74 120.533 1423.21 120 1425.07 120H1515.07C1531.07 120 1545.21 123.867 1557.47 131.6C1570.01 139.067 1579.74 149.6 1586.67 163.2C1593.61 176.533 1597.07 191.867 1597.07 209.2C1597.07 223.867 1594.54 237.067 1589.47 248.8C1584.41 260.267 1577.07 269.6 1567.47 276.8C1566.41 277.6 1566.01 278.667 1566.27 280L1598.67 393.2C1598.94 393.733 1599.07 394.4 1599.07 395.2C1599.07 398.4 1597.21 400 1593.47 400H1528.27ZM1496.67 184.4C1495.07 184.4 1494.27 185.2 1494.27 186.8V232.8C1494.27 234.4 1495.07 235.2 1496.67 235.2H1501.87C1507.74 235.2 1512.54 233.067 1516.27 228.8C1520.01 224.267 1521.87 218 1521.87 210C1521.87 201.733 1520.01 195.467 1516.27 191.2C1512.81 186.667 1508.01 184.4 1501.87 184.4H1496.67ZM1791.17 120C1793.03 120 1794.5 120.533 1795.57 121.6C1796.63 122.667 1797.17 124.133 1797.17 126V178.4C1797.17 180.267 1796.63 181.733 1795.57 182.8C1794.5 183.867 1793.03 184.4 1791.17 184.4H1743.97C1742.37 184.4 1741.57 185.2 1741.57 186.8V394C1741.57 395.867 1741.03 397.333 1739.97 398.4C1738.9 399.467 1737.43 400 1735.57 400H1672.37C1670.5 400 1669.03 399.467 1667.97 398.4C1666.9 397.333 1666.37 395.867 1666.37 394V186.8C1666.37 185.2 1665.57 184.4 1663.97 184.4H1617.97C1616.1 184.4 1614.63 183.867 1613.57 182.8C1612.5 181.733 1611.97 180.267 1611.97 178.4V126C1611.97 124.133 1612.5 122.667 1613.57 121.6C1614.63 120.533 1616.1 120 1617.97 120H1791.17ZM1991.58 321.2C1991.58 346.533 1983.44 366 1967.18 379.6C1950.91 393.2 1930.24 400 1905.18 400H1820.78C1818.91 400 1817.44 399.467 1816.38 398.4C1815.31 397.333 1814.78 395.867 1814.78 394V126C1814.78 124.133 1815.31 122.667 1816.38 121.6C1817.44 120.533 1818.91 120 1820.78 120H1893.18C1922.24 120 1944.91 126.533 1961.18 139.6C1977.71 152.667 1985.98 172.4 1985.98 198.8C1985.98 223.333 1978.38 241.6 1963.18 253.6C1961.84 254.667 1961.58 255.6 1962.38 256.4C1981.84 271.333 1991.58 292.933 1991.58 321.2ZM1892.38 184.4C1890.78 184.4 1889.98 185.2 1889.98 186.8V226.8C1889.98 228.4 1890.78 229.2 1892.38 229.2H1894.38C1906.38 229.2 1912.38 221.733 1912.38 206.8C1912.38 191.867 1906.38 184.4 1894.38 184.4H1892.38ZM1899.18 335.6C1904.24 335.6 1908.38 333.467 1911.58 329.2C1914.78 324.667 1916.38 318.267 1916.38 310C1916.38 301.733 1914.78 295.2 1911.58 290.4C1908.64 285.333 1904.64 282.8 1899.58 282.8H1892.38C1890.78 282.8 1889.98 283.6 1889.98 285.2V333.2C1889.98 334.8 1890.78 335.6 1892.38 335.6H1899.18ZM2168.53 178.4C2168.53 180.267 2167.99 181.733 2166.93 182.8C2165.86 183.867 2164.39 184.4 2162.53 184.4H2086.13C2084.53 184.4 2083.73 185.2 2083.73 186.8V225.2C2083.73 226.8 2084.53 227.6 2086.13 227.6H2125.73C2127.59 227.6 2129.06 228.133 2130.13 229.2C2131.19 230.267 2131.73 231.733 2131.73 233.6V286C2131.73 287.867 2131.19 289.333 2130.13 290.4C2129.06 291.467 2127.59 292 2125.73 292H2086.13C2084.53 292 2083.73 292.8 2083.73 294.4V333.2C2083.73 334.8 2084.53 335.6 2086.13 335.6H2162.53C2164.39 335.6 2165.86 336.133 2166.93 337.2C2167.99 338.267 2168.53 339.733 2168.53 341.6V394C2168.53 395.867 2167.99 397.333 2166.93 398.4C2165.86 399.467 2164.39 400 2162.53 400H2014.53C2012.66 400 2011.19 399.467 2010.13 398.4C2009.06 397.333 2008.53 395.867 2008.53 394V126C2008.53 124.133 2009.06 122.667 2010.13 121.6C2011.19 120.533 2012.66 120 2014.53 120H2162.53C2164.39 120 2165.86 120.533 2166.93 121.6C2167.99 122.667 2168.53 124.133 2168.53 126V178.4ZM2316.17 400C2312.17 400 2310.03 398.133 2309.77 394.4L2305.37 364.4C2305.37 363.867 2305.1 363.333 2304.57 362.8C2304.03 362.267 2303.37 362 2302.57 362H2267.37C2266.57 362 2265.9 362.267 2265.37 362.8C2264.83 363.333 2264.57 363.867 2264.57 364.4L2260.57 394.4C2260.3 398.133 2258.17 400 2254.17 400H2191.37C2187.1 400 2185.37 397.867 2186.17 393.6L2242.97 125.2C2243.77 121.733 2246.03 120 2249.77 120H2322.57C2326.3 120 2328.57 121.733 2329.37 125.2L2386.17 393.6V395.2C2386.17 398.4 2384.3 400 2380.57 400H2316.17ZM2273.37 302C2273.37 303.6 2274.03 304.4 2275.37 304.4H2294.17C2296.03 304.4 2296.7 303.6 2296.17 302L2285.37 230C2285.1 228.933 2284.7 228.4 2284.17 228.4C2283.63 228.4 2283.23 228.933 2282.97 230L2273.37 302ZM2555.23 120C2557.09 120 2558.56 120.533 2559.63 121.6C2560.69 122.667 2561.23 124.133 2561.23 126V178.4C2561.23 180.267 2560.69 181.733 2559.63 182.8C2558.56 183.867 2557.09 184.4 2555.23 184.4H2508.03C2506.43 184.4 2505.63 185.2 2505.63 186.8V394C2505.63 395.867 2505.09 397.333 2504.03 398.4C2502.96 399.467 2501.49 400 2499.63 400H2436.43C2434.56 400 2433.09 399.467 2432.03 398.4C2430.96 397.333 2430.43 395.867 2430.43 394V186.8C2430.43 185.2 2429.63 184.4 2428.03 184.4H2382.03C2380.16 184.4 2378.69 183.867 2377.63 182.8C2376.56 181.733 2376.03 180.267 2376.03 178.4V126C2376.03 124.133 2376.56 122.667 2377.63 121.6C2378.69 120.533 2380.16 120 2382.03 120H2555.23Z" fill="white"/>
<defs>
<linearGradient id="paint0_linear_112_259" x1="704.5" y1="479.376" x2="704.5" y2="47" gradientUnits="userSpaceOnUse">
<stop stop-color="#F5782B"/>
<stop offset="1" stop-color="#FF4700"/>
</linearGradient>
<linearGradient id="paint1_linear_112_259" x1="704.5" y1="479.376" x2="704.5" y2="47" gradientUnits="userSpaceOnUse">
<stop stop-color="#F5782B"/>
<stop offset="1" stop-color="#FF4700"/>
</linearGradient>
<linearGradient id="paint2_linear_112_259" x1="704.5" y1="479.376" x2="704.5" y2="47" gradientUnits="userSpaceOnUse">
<stop stop-color="#F5782B"/>
<stop offset="1" stop-color="#FF4700"/>
</linearGradient>
<linearGradient id="paint3_linear_112_259" x1="704.5" y1="479.376" x2="704.5" y2="47" gradientUnits="userSpaceOnUse">
<stop stop-color="#F5782B"/>
<stop offset="1" stop-color="#FF4700"/>
</linearGradient>
</defs>
</svg>
